<mxfile host="app.diagrams.net" modified="2024-03-03T21:59:45.793Z" agent="Mozilla/5.0 (Windows NT 10.0; Win64; x64) AppleWebKit/537.36 (KHTML, like Gecko) Chrome/122.0.0.0 Safari/537.36" etag="UhQz2-5gqYCMaNIYQGyx" version="24.0.1" type="device">
  <diagram name="Strona-1" id="SsDQMP1VrTIaxaNpBAQf">
    <mxGraphModel dx="954" dy="618" grid="1" gridSize="10" guides="1" tooltips="1" connect="1" arrows="1" fold="1" page="1" pageScale="1" pageWidth="827" pageHeight="1169" math="0" shadow="0">
      <root>
        <mxCell id="0" />
        <mxCell id="1" parent="0" />
        <mxCell id="gjUcKpJA6WJK3rqkIlLC-83" value="" style="rounded=0;whiteSpace=wrap;html=1;" vertex="1" parent="1">
          <mxGeometry x="374.5" y="12.5" width="160" height="165" as="geometry" />
        </mxCell>
        <mxCell id="gjUcKpJA6WJK3rqkIlLC-90" style="edgeStyle=orthogonalEdgeStyle;rounded=0;orthogonalLoop=1;jettySize=auto;html=1;exitX=0.5;exitY=1;exitDx=0;exitDy=0;entryX=1;entryY=0.5;entryDx=0;entryDy=0;" edge="1" parent="1" source="gjUcKpJA6WJK3rqkIlLC-1" target="gjUcKpJA6WJK3rqkIlLC-46">
          <mxGeometry relative="1" as="geometry" />
        </mxCell>
        <mxCell id="gjUcKpJA6WJK3rqkIlLC-91" style="edgeStyle=orthogonalEdgeStyle;rounded=0;orthogonalLoop=1;jettySize=auto;html=1;entryX=1;entryY=0.5;entryDx=0;entryDy=0;" edge="1" parent="1" source="gjUcKpJA6WJK3rqkIlLC-1" target="gjUcKpJA6WJK3rqkIlLC-83">
          <mxGeometry relative="1" as="geometry" />
        </mxCell>
        <mxCell id="gjUcKpJA6WJK3rqkIlLC-1" value="News" style="rounded=0;whiteSpace=wrap;html=1;" vertex="1" parent="1">
          <mxGeometry x="670" y="65" width="109.5" height="60" as="geometry" />
        </mxCell>
        <mxCell id="gjUcKpJA6WJK3rqkIlLC-45" style="edgeStyle=orthogonalEdgeStyle;rounded=0;orthogonalLoop=1;jettySize=auto;html=1;exitX=0.5;exitY=1;exitDx=0;exitDy=0;entryX=0.5;entryY=0;entryDx=0;entryDy=0;" edge="1" parent="1" source="gjUcKpJA6WJK3rqkIlLC-3" target="gjUcKpJA6WJK3rqkIlLC-44">
          <mxGeometry relative="1" as="geometry" />
        </mxCell>
        <mxCell id="gjUcKpJA6WJK3rqkIlLC-3" value="Categories" style="rounded=0;whiteSpace=wrap;html=1;" vertex="1" parent="1">
          <mxGeometry x="214.5" y="280" width="120" height="60" as="geometry" />
        </mxCell>
        <mxCell id="gjUcKpJA6WJK3rqkIlLC-9" value="Rating" style="rounded=0;whiteSpace=wrap;html=1;" vertex="1" parent="1">
          <mxGeometry x="394.5" y="27.5" width="120" height="60" as="geometry" />
        </mxCell>
        <mxCell id="gjUcKpJA6WJK3rqkIlLC-47" style="edgeStyle=orthogonalEdgeStyle;rounded=0;orthogonalLoop=1;jettySize=auto;html=1;exitX=0.5;exitY=1;exitDx=0;exitDy=0;entryX=0.5;entryY=0;entryDx=0;entryDy=0;" edge="1" parent="1" source="gjUcKpJA6WJK3rqkIlLC-33" target="gjUcKpJA6WJK3rqkIlLC-46">
          <mxGeometry relative="1" as="geometry" />
        </mxCell>
        <mxCell id="gjUcKpJA6WJK3rqkIlLC-52" style="edgeStyle=orthogonalEdgeStyle;rounded=0;orthogonalLoop=1;jettySize=auto;html=1;entryX=0;entryY=0.75;entryDx=0;entryDy=0;" edge="1" parent="1" source="gjUcKpJA6WJK3rqkIlLC-33" target="gjUcKpJA6WJK3rqkIlLC-49">
          <mxGeometry relative="1" as="geometry" />
        </mxCell>
        <mxCell id="gjUcKpJA6WJK3rqkIlLC-84" style="edgeStyle=orthogonalEdgeStyle;rounded=0;orthogonalLoop=1;jettySize=auto;html=1;exitX=1;exitY=0.5;exitDx=0;exitDy=0;entryX=0;entryY=0.5;entryDx=0;entryDy=0;" edge="1" parent="1" source="gjUcKpJA6WJK3rqkIlLC-33" target="gjUcKpJA6WJK3rqkIlLC-83">
          <mxGeometry relative="1" as="geometry" />
        </mxCell>
        <mxCell id="gjUcKpJA6WJK3rqkIlLC-33" value="User" style="rounded=0;whiteSpace=wrap;html=1;" vertex="1" parent="1">
          <mxGeometry x="214.5" y="30" width="120" height="60" as="geometry" />
        </mxCell>
        <mxCell id="gjUcKpJA6WJK3rqkIlLC-68" style="edgeStyle=orthogonalEdgeStyle;rounded=0;orthogonalLoop=1;jettySize=auto;html=1;exitX=0;exitY=0.5;exitDx=0;exitDy=0;entryX=1;entryY=0.5;entryDx=0;entryDy=0;" edge="1" parent="1" source="gjUcKpJA6WJK3rqkIlLC-44" target="gjUcKpJA6WJK3rqkIlLC-49">
          <mxGeometry relative="1" as="geometry" />
        </mxCell>
        <mxCell id="gjUcKpJA6WJK3rqkIlLC-69" style="edgeStyle=orthogonalEdgeStyle;rounded=0;orthogonalLoop=1;jettySize=auto;html=1;exitX=1;exitY=0.5;exitDx=0;exitDy=0;entryX=0;entryY=0.5;entryDx=0;entryDy=0;" edge="1" parent="1" source="gjUcKpJA6WJK3rqkIlLC-44" target="gjUcKpJA6WJK3rqkIlLC-50">
          <mxGeometry relative="1" as="geometry" />
        </mxCell>
        <mxCell id="gjUcKpJA6WJK3rqkIlLC-94" style="edgeStyle=orthogonalEdgeStyle;rounded=0;orthogonalLoop=1;jettySize=auto;html=1;exitX=0.75;exitY=0;exitDx=0;exitDy=0;entryX=0.5;entryY=1;entryDx=0;entryDy=0;" edge="1" parent="1" source="gjUcKpJA6WJK3rqkIlLC-44" target="gjUcKpJA6WJK3rqkIlLC-83">
          <mxGeometry relative="1" as="geometry" />
        </mxCell>
        <mxCell id="gjUcKpJA6WJK3rqkIlLC-44" value="Subcategories" style="rounded=0;whiteSpace=wrap;html=1;" vertex="1" parent="1">
          <mxGeometry x="214.5" y="530" width="120" height="60" as="geometry" />
        </mxCell>
        <mxCell id="gjUcKpJA6WJK3rqkIlLC-77" style="edgeStyle=orthogonalEdgeStyle;rounded=0;orthogonalLoop=1;jettySize=auto;html=1;exitX=0.5;exitY=1;exitDx=0;exitDy=0;entryX=0.5;entryY=0;entryDx=0;entryDy=0;" edge="1" parent="1" source="gjUcKpJA6WJK3rqkIlLC-46" target="gjUcKpJA6WJK3rqkIlLC-3">
          <mxGeometry relative="1" as="geometry" />
        </mxCell>
        <mxCell id="gjUcKpJA6WJK3rqkIlLC-46" value="&lt;span style=&quot;border: 0px solid rgb(227, 227, 227); box-sizing: border-box; --tw-border-spacing-x: 0; --tw-border-spacing-y: 0; --tw-translate-x: 0; --tw-translate-y: 0; --tw-rotate: 0; --tw-skew-x: 0; --tw-skew-y: 0; --tw-scale-x: 1; --tw-scale-y: 1; --tw-pan-x: ; --tw-pan-y: ; --tw-pinch-zoom: ; --tw-scroll-snap-strictness: proximity; --tw-gradient-from-position: ; --tw-gradient-via-position: ; --tw-gradient-to-position: ; --tw-ordinal: ; --tw-slashed-zero: ; --tw-numeric-figure: ; --tw-numeric-spacing: ; --tw-numeric-fraction: ; --tw-ring-inset: ; --tw-ring-offset-width: 0px; --tw-ring-offset-color: #fff; --tw-ring-color: rgba(69,89,164,.5); --tw-ring-offset-shadow: 0 0 transparent; --tw-ring-shadow: 0 0 transparent; --tw-shadow: 0 0 transparent; --tw-shadow-colored: 0 0 transparent; --tw-blur: ; --tw-brightness: ; --tw-contrast: ; --tw-grayscale: ; --tw-hue-rotate: ; --tw-invert: ; --tw-saturate: ; --tw-sepia: ; --tw-drop-shadow: ; --tw-backdrop-blur: ; --tw-backdrop-brightness: ; --tw-backdrop-contrast: ; --tw-backdrop-grayscale: ; --tw-backdrop-hue-rotate: ; --tw-backdrop-invert: ; --tw-backdrop-opacity: ; --tw-backdrop-saturate: ; --tw-backdrop-sepia: ; color: rgb(13, 13, 13); text-align: left; white-space-collapse: preserve; background-color: rgb(255, 255, 255);&quot;&gt;&lt;font face=&quot;Helvetica&quot; style=&quot;font-size: 12px;&quot;&gt;Location &lt;/font&gt;&lt;/span&gt;" style="rounded=0;whiteSpace=wrap;html=1;" vertex="1" parent="1">
          <mxGeometry x="214.5" y="190" width="120" height="60" as="geometry" />
        </mxCell>
        <mxCell id="gjUcKpJA6WJK3rqkIlLC-97" style="edgeStyle=orthogonalEdgeStyle;rounded=0;orthogonalLoop=1;jettySize=auto;html=1;exitX=1;exitY=0.25;exitDx=0;exitDy=0;entryX=0.5;entryY=1;entryDx=0;entryDy=0;" edge="1" parent="1" source="gjUcKpJA6WJK3rqkIlLC-49" target="gjUcKpJA6WJK3rqkIlLC-83">
          <mxGeometry relative="1" as="geometry" />
        </mxCell>
        <mxCell id="gjUcKpJA6WJK3rqkIlLC-49" value="Places" style="rounded=0;whiteSpace=wrap;html=1;" vertex="1" parent="1">
          <mxGeometry x="50" y="390" width="120" height="60" as="geometry" />
        </mxCell>
        <mxCell id="gjUcKpJA6WJK3rqkIlLC-95" style="edgeStyle=orthogonalEdgeStyle;rounded=0;orthogonalLoop=1;jettySize=auto;html=1;exitX=0.5;exitY=0;exitDx=0;exitDy=0;entryX=0.5;entryY=1;entryDx=0;entryDy=0;" edge="1" parent="1" source="gjUcKpJA6WJK3rqkIlLC-50" target="gjUcKpJA6WJK3rqkIlLC-83">
          <mxGeometry relative="1" as="geometry" />
        </mxCell>
        <mxCell id="gjUcKpJA6WJK3rqkIlLC-50" value="Events" style="rounded=0;whiteSpace=wrap;html=1;" vertex="1" parent="1">
          <mxGeometry x="500" y="440" width="120" height="60" as="geometry" />
        </mxCell>
        <mxCell id="gjUcKpJA6WJK3rqkIlLC-65" style="edgeStyle=orthogonalEdgeStyle;rounded=0;orthogonalLoop=1;jettySize=auto;html=1;exitX=0.5;exitY=0;exitDx=0;exitDy=0;entryX=0.5;entryY=1;entryDx=0;entryDy=0;" edge="1" parent="1" source="gjUcKpJA6WJK3rqkIlLC-51" target="gjUcKpJA6WJK3rqkIlLC-49">
          <mxGeometry relative="1" as="geometry" />
        </mxCell>
        <mxCell id="gjUcKpJA6WJK3rqkIlLC-51" value="Discounts" style="rounded=0;whiteSpace=wrap;html=1;" vertex="1" parent="1">
          <mxGeometry x="50" y="480" width="120" height="60" as="geometry" />
        </mxCell>
        <mxCell id="gjUcKpJA6WJK3rqkIlLC-53" value="Add after authentication" style="text;html=1;align=center;verticalAlign=middle;resizable=0;points=[];autosize=1;strokeColor=none;fillColor=none;" vertex="1" parent="1">
          <mxGeometry x="59.5" y="38" width="150" height="30" as="geometry" />
        </mxCell>
        <mxCell id="gjUcKpJA6WJK3rqkIlLC-55" value="Opinion" style="rounded=0;whiteSpace=wrap;html=1;" vertex="1" parent="1">
          <mxGeometry x="394.5" y="97.5" width="120" height="60" as="geometry" />
        </mxCell>
        <mxCell id="gjUcKpJA6WJK3rqkIlLC-57" value="Add" style="text;html=1;align=center;verticalAlign=middle;resizable=0;points=[];autosize=1;strokeColor=none;fillColor=none;" vertex="1" parent="1">
          <mxGeometry x="334.5" y="35" width="40" height="30" as="geometry" />
        </mxCell>
        <mxCell id="gjUcKpJA6WJK3rqkIlLC-58" value="Choose" style="text;html=1;align=center;verticalAlign=middle;resizable=0;points=[];autosize=1;strokeColor=none;fillColor=none;" vertex="1" parent="1">
          <mxGeometry x="270" y="80" width="60" height="30" as="geometry" />
        </mxCell>
        <mxCell id="gjUcKpJA6WJK3rqkIlLC-59" value="Choose" style="text;html=1;align=center;verticalAlign=middle;resizable=0;points=[];autosize=1;strokeColor=none;fillColor=none;" vertex="1" parent="1">
          <mxGeometry x="270" y="240" width="60" height="30" as="geometry" />
        </mxCell>
        <mxCell id="gjUcKpJA6WJK3rqkIlLC-60" value="Choose" style="text;html=1;align=center;verticalAlign=middle;resizable=0;points=[];autosize=1;strokeColor=none;fillColor=none;" vertex="1" parent="1">
          <mxGeometry x="220" y="330" width="60" height="30" as="geometry" />
        </mxCell>
      </root>
    </mxGraphModel>
  </diagram>
</mxfile>
